<?xml version="1.0" encoding="utf-8"?>
<!-- Generator: Adobe Illustrator 21.0.0, SVG Export Plug-In . SVG Version: 6.00 Build 0)  -->
<svg version="1.1" id="Space" xmlns="http://www.w3.org/2000/svg" xmlns:xlink="http://www.w3.org/1999/xlink" x="0px" y="0px"
	 viewBox="0 0 238 238" style="enable-background:new 0 0 238 238;" xml:space="preserve">
<style type="text/css">
	.st0{display:none;fill:#273554;}
	.st1{display:none;}
	.st2{display:inline;}
	.st3{fill:#FFFFFF;}
	.st4{fill:#46BBEB;}
	.st5{fill:#4FFFA8;}
	.st6{opacity:0.1;}
	.st7{fill:#53A2D3;}
	.st8{fill:#BCBEC0;}
	.st9{fill:#E6E7E8;}
</style>
<g id="Earth">
	<rect id="Background_9_" x="-1" y="-1" class="st0" width="240" height="240"/>
	<g id="Earth_2_">
		<g id="Star_8_" class="st1">
			<g class="st2">
				<path class="st3" d="M84.3,46.5"/>
			</g>
			<g class="st2">
				<path class="st3" d="M34.8,115.4"/>
			</g>
			<g class="st2">
				<path class="st3" d="M202.7,78.6c-5.4,0-9.7-4.3-9.7-9.7c0,5.4-4.3,9.7-9.7,9.7c5.4,0,9.7,4.3,9.7,9.7"/>
			</g>
		</g>
		<g id="Earth_1_">
			<circle class="st4" cx="119" cy="119" r="68.2"/>
			<g>
				<path class="st5" d="M185.4,103.1l-1.1-0.4h-5.4l-4-3.2l-8.3,6.1l-6.9-6.1l-11.7,2.2l-7.5,0.9l-1.3,14.2l3.1,13.5h12.5l7-1
					l3,5.5l3.2,6.4l-5.6,4.7l4.7,10.7l-0.8,4.2l4.2,3.1c10.5-12,16.8-27.7,16.8-44.8C187.2,113.5,186.6,108.2,185.4,103.1z"/>
				<path class="st5" d="M59.8,112.6l4.4,1l4.4,2.9l6,1.9l3.1,0.8l2.9,1.3l-1.5,3.1l-4.8,7.7l5.3,6.3l7.5,4.8v4.3L92,154
					c0,0-0.5,4.8,0,6.3c0.5,1.5,3.4,9.5,3.4,9.5l2.9,3.7l7,0.9l-4.4-7.1c0,0,6.5-9.9,7-10.2c0.5-0.3-2-4.3-1.5-4.8
					c0.5-0.5,4.6-4.9,4.6-4.9l4.4-5.6l1.9-7.3l-5.6-8.8c0,0-6.3-4.4-6.3-4.9c0-0.5-4.1-4.9-4.1-4.9l-11.4-0.3l-6.5-2l-2.4,4.3
					l-5.4-2.7l0.2-4.5h-3.7h-0.5l-2.4-3.7l3.6-2.7l7.3,3.7l4.6-2.9l4.9-11.6l4.4-5.6h8l1.2-2.7l5.3-2.6l2.2,1.5l2.4-3.5l-4.6-6.5
					l-3.6-1.2l-1.3,1.2l-4.3,4l-10-2.4l-1.4,4.8l-4.4-5.6l5.8-2l6.5,1.7l2.6-2.6l8.2-1.2l-6.6-7H92l-3.1,4.9l-3.1-3.9l-7.4-0.5
					c-14.3,10.6-24.4,26.7-27,45.2l5.4,0.9L59.8,112.6z"/>
				<path class="st5" d="M160.1,76.7v3.1l-9,2.6l0.9,6.5l-5.1-3.1l-4.9,4l3.2,4.8l4.9,0.7l8.3-6.6l2.4,3.1c0,0-1.5,3.6,0,4.8
					c1.5,1.2,8,3.1,8,3.1v-5.8l-4.4-3.9l2.9-2.4l5.3,4.4l-1.7,3.1l9.9,4.6c0,0,1.1-1.3,2.7-3.1c-5-14-14.4-25.9-26.5-34L154,73
					L160.1,76.7z"/>
			</g>
			<path class="st6" d="M152.6,59.6c9.1,11.6,14.6,26.3,14.6,42.2c0,37.7-30.5,68.2-68.2,68.2c-12.2,0-23.7-3.2-33.6-8.8
				c12.5,15.9,31.9,26,53.6,26c37.7,0,68.2-30.5,68.2-68.2C187.2,93.5,173.3,71.4,152.6,59.6z"/>
			<path class="st5" d="M66.4,148.4l-1-1l-2.9,0.6v2.8l-3,1.7c1.4,2.4,2.8,4.7,4.5,6.9l2.2-0.4l4.3-3l0.2-2.8l-4.2-2V148.4z"/>
		</g>
	</g>
</g>

</svg>
