<?xml version="1.0" encoding="utf-8"?>
<!-- Generator: Adobe Illustrator 21.0.0, SVG Export Plug-In . SVG Version: 6.00 Build 0)  -->
<svg version="1.1" id="Space" xmlns="http://www.w3.org/2000/svg" xmlns:xlink="http://www.w3.org/1999/xlink" x="0px" y="0px"
	 viewBox="0 0 238 238" style="enable-background:new 0 0 238 238;" xml:space="preserve">
<style type="text/css">
	.st0{display:none;fill:#273554;}
	.st1{display:none;}
	.st2{display:inline;}
	.st3{fill:#FFFFFF;}
	.st4{fill:#46BBEB;}
	.st5{fill:#4FFFA8;}
	.st6{opacity:0.1;}
	.st7{fill:#53A2D3;}
	.st8{fill:#BCBEC0;}
	.st9{fill:#E6E7E8;}
</style>
<g id="Earth">
	<rect id="Background_9_" x="-317.4" y="-497" class="st0" width="240" height="240"/>
	<g id="Earth_2_">
		<g id="Star_8_" class="st1">
			<g class="st2">
				<path class="st3" d="M-232.1-449.5"/>
			</g>
			<g class="st2">
				<path class="st3" d="M-281.6-380.6"/>
			</g>
			<g class="st2">
				<path class="st3" d="M-113.7-417.4c-5.4,0-9.7-4.3-9.7-9.7c0,5.4-4.3,9.7-9.7,9.7c5.4,0,9.7,4.3,9.7,9.7"/>
			</g>
		</g>
		<g id="Earth_1_">
			<circle class="st4" cx="-197.4" cy="-377" r="68.2"/>
			<g>
				<path class="st5" d="M-131-392.9l-1.1-0.4h-5.4l-4-3.2l-8.3,6.1l-6.9-6.1l-11.7,2.2l-7.5,0.9l-1.3,14.2l3.1,13.5h12.5l7-1l3,5.5
					l3.2,6.4l-5.6,4.7l4.7,10.7l-0.8,4.2l4.2,3.1c10.5-12,16.8-27.7,16.8-44.8C-129.2-382.5-129.8-387.8-131-392.9z"/>
				<path class="st5" d="M-256.6-383.4l4.4,1l4.4,2.9l6,1.9l3.1,0.8l2.9,1.3l-1.5,3.1l-4.8,7.7l5.3,6.3l7.5,4.8v4.3l4.9,7.5
					c0,0-0.5,4.8,0,6.3c0.5,1.5,3.4,9.5,3.4,9.5l2.9,3.7l7,0.9l-4.4-7.1c0,0,6.5-9.9,7-10.2c0.5-0.3-2-4.3-1.5-4.8
					c0.5-0.5,4.6-4.9,4.6-4.9l4.4-5.6l1.9-7.3l-5.6-8.8c0,0-6.3-4.4-6.3-4.9c0-0.5-4.1-4.9-4.1-4.9l-11.4-0.3l-6.5-2l-2.4,4.3
					l-5.4-2.7l0.2-4.5h-3.7h-0.5l-2.4-3.7l3.6-2.7l7.3,3.7l4.6-2.9l4.9-11.6l4.4-5.6h8l1.2-2.7l5.3-2.6l2.2,1.5l2.4-3.5l-4.6-6.5
					l-3.6-1.2l-1.3,1.2l-4.3,4l-10-2.4l-1.4,4.8l-4.4-5.6l5.8-2l6.5,1.7l2.6-2.6l8.2-1.2l-6.6-7h-7.7l-3.1,4.9l-3.1-3.9l-7.4-0.5
					c-14.3,10.6-24.4,26.7-27,45.2l5.4,0.9L-256.6-383.4z"/>
				<path class="st5" d="M-156.3-419.3v3.1l-9,2.6l0.9,6.5l-5.1-3.1l-4.9,4l3.2,4.8l4.9,0.7l8.3-6.6l2.4,3.1c0,0-1.5,3.6,0,4.8
					c1.5,1.2,8,3.1,8,3.1v-5.8l-4.4-3.9l2.9-2.4l5.3,4.4l-1.7,3.1l9.9,4.6c0,0,1.1-1.3,2.7-3.1c-5-14-14.4-25.9-26.5-34l-2.9,10.8
					L-156.3-419.3z"/>
			</g>
			<path class="st6" d="M-163.8-436.4c9.1,11.6,14.6,26.3,14.6,42.2c0,37.7-30.5,68.2-68.2,68.2c-12.2,0-23.7-3.2-33.6-8.8
				c12.5,15.9,31.9,26,53.6,26c37.7,0,68.2-30.5,68.2-68.2C-129.2-402.5-143.1-424.6-163.8-436.4z"/>
			<path class="st5" d="M-250-347.6l-1-1l-2.9,0.6v2.8l-3,1.7c1.4,2.4,2.8,4.7,4.5,6.9l2.2-0.4l4.3-3l0.2-2.8l-4.2-2V-347.6z"/>
		</g>
	</g>
</g>
<g id="Satellite">
	<rect id="Background_17_" x="-1" y="-1" class="st0" width="240" height="240"/>
	<g id="Satellite_2_">
		<g id="Satellite_1_">
			
				<rect x="163" y="105.4" transform="matrix(0.5788 -0.8155 0.8155 0.5788 -29.8321 198.8124)" class="st3" width="29.1" height="45.8"/>
			
				<rect x="156.8" y="112.1" transform="matrix(0.5788 -0.8155 0.8155 0.5788 -28.4283 188.8786)" class="st7" width="23.7" height="19.7"/>
			
				<rect x="174.6" y="124.8" transform="matrix(0.5788 -0.8155 0.8155 0.5788 -31.2351 208.7482)" class="st7" width="23.7" height="19.7"/>
			
				<rect x="79.4" y="46.1" transform="matrix(0.5788 -0.8155 0.8155 0.5788 -16.6626 105.6837)" class="st3" width="29.1" height="45.8"/>
			
				<rect x="73.2" y="52.8" transform="matrix(0.5788 -0.8155 0.8155 0.5788 -15.2585 95.7515)" class="st7" width="23.7" height="19.7"/>
			
				<rect x="91" y="65.5" transform="matrix(0.5788 -0.8155 0.8155 0.5788 -18.0677 115.6148)" class="st7" width="23.7" height="19.7"/>
			
				<rect x="61.7" y="71" transform="matrix(0.5788 -0.8155 0.8155 0.5788 -44.4267 101.7567)" class="st3" width="29.1" height="45.8"/>
			
				<rect x="55.5" y="77.7" transform="matrix(0.5788 -0.8155 0.8155 0.5788 -43.0218 91.8297)" class="st7" width="23.7" height="19.7"/>
			
				<rect x="73.3" y="90.4" transform="matrix(0.5788 -0.8155 0.8155 0.5788 -45.8309 111.6921)" class="st7" width="23.7" height="19.7"/>
			
				<rect x="145.3" y="130.3" transform="matrix(0.5788 -0.8155 0.8155 0.5788 -57.5957 194.8866)" class="st3" width="29.1" height="45.8"/>
			
				<rect x="139.1" y="137" transform="matrix(0.5788 -0.8155 0.8155 0.5788 -56.1905 184.9585)" class="st7" width="23.7" height="19.7"/>
			
				<rect x="156.9" y="149.7" transform="matrix(0.5788 -0.8155 0.8155 0.5788 -58.9989 204.8248)" class="st7" width="23.7" height="19.7"/>
			
				<ellipse transform="matrix(0.5788 -0.8155 0.8155 0.5788 -77.7577 144.5941)" class="st8" cx="101.1" cy="147.6" rx="3.6" ry="3.6"/>
			
				<ellipse transform="matrix(0.5788 -0.8154 0.8154 0.5788 -66.4813 146.1792)" class="st8" cx="108.3" cy="137.4" rx="5.6" ry="5.6"/>
			
				<rect x="98.5" y="138.2" transform="matrix(0.5788 -0.8155 0.8155 0.5788 -69.542 145.7482)" class="st8" width="15.6" height="4.1"/>
			
				<rect x="144.2" y="73.8" transform="matrix(0.5789 -0.8154 0.8154 0.5789 2.228 155.891)" class="st8" width="15.6" height="4.1"/>
			
				<rect x="154.5" y="63.3" transform="matrix(0.5789 -0.8154 0.8154 0.5789 9.3355 156.8965)" class="st8" width="4.1" height="12.3"/>
			
				<rect x="96.3" y="96.2" transform="matrix(0.5788 -0.8155 0.8155 0.5788 -40.6668 149.7842)" class="st3" width="56.8" height="36.1"/>
			<polygon class="st8" points="145.4,134 137,128 138.4,126 146.7,131.9 			"/>
			
				<rect x="130.9" y="138.6" transform="matrix(0.5788 -0.8155 0.8155 0.5788 -61.6206 168.2279)" class="st8" width="2.4" height="10.3"/>
			<polygon class="st8" points="90.7,113.1 99.1,119.1 97.7,120.9 89.4,114.9 			"/>
			<polygon class="st8" points="100.6,99.1 108.9,105.1 107.6,107.1 99.2,101.2 			"/>
			
				<rect x="158.4" y="100" transform="matrix(0.5788 -0.8155 0.8155 0.5788 -18.4962 174.415)" class="st8" width="2.4" height="10.3"/>
			
				<rect x="148.6" y="113.8" transform="matrix(0.5788 -0.8155 0.8155 0.5788 -33.9505 172.225)" class="st8" width="2.4" height="10.3"/>
			<polygon class="st8" points="108.4,88.2 116.8,94.2 115.4,96 107,90 			"/>
			<polygon class="st8" points="118.3,74.3 126.6,80.3 125.3,82.1 116.9,76.1 			"/>
			<ellipse transform="matrix(0.5788 -0.8155 0.8155 0.5788 -14.86 153.4332)" class="st3" cx="141.1" cy="91.1" rx="18" ry="18"/>
			<g>
				
					<rect x="77.1" y="152.7" transform="matrix(0.5787 -0.8156 0.8156 0.5787 -101.8839 132.7555)" class="st8" width="0.9" height="24.5"/>
			</g>
			<g>
				
					<rect x="62.5" y="148.1" transform="matrix(0.5789 -0.8154 0.8154 0.5789 -89.6241 123.4981)" class="st8" width="24.5" height="0.9"/>
			</g>
			<g>
				
					<rect x="67.4" y="155.4" transform="matrix(0.9859 -0.167 0.167 0.9859 -24.9126 15.492)" class="st8" width="24.5" height="0.9"/>
			</g>
			<g>
				<path class="st3" d="M102.4,152c-1.8-10.8-12.1-18.1-22.9-16.2l6.6,39.1C97,173,104.3,162.8,102.4,152z"/>
			</g>
			
				<ellipse transform="matrix(0.9859 -0.1674 0.1674 0.9859 -25.4768 13.5346)" class="st3" cx="67.5" cy="157.9" rx="2.7" ry="2.7"/>
			<path class="st9" d="M130.3,96.7c1.3-1.8,3.8-2.3,5.7-1l2.5,1.8c1.8,1.3,2.3,3.8,1,5.7L118.9,132c-1.3,1.8-3.8,2.3-5.7,1
				l-2.5-1.8c-1.8-1.3-2.3-3.8-1-5.7L130.3,96.7z"/>
		</g>
		<g id="Star_15_" class="st1">
			<g class="st2">
				<path class="st3" d="M86.4,16.6"/>
				<path class="st3" d="M92.6,18.1"/>
			</g>
			<g class="st2">
				<path class="st3" d="M179.5,123.2c1.3,2.1,0.7,4.9-1.5,6.2c2.1-1.3,4.9-0.7,6.2,1.5c-1.3-2.1-0.7-4.9,1.5-6.2"/>
			</g>
		</g>
	</g>
</g>
</svg>
